{
  "title": "The Hateful Eight 2015 4K UHD 2160p REMUX DCPRip DTS-HD 5.1-DDR",
  "uid": 15772977,
  "size": 40865958912,
  "categoryP": "video",
  "categoryS": "hd___movies",
  "magnet": "?xt=urn:btih:819affa4490e49d4bc30699a0415fe0dc4174cb7&amp;dn=The+Hateful+Eight+2015+4K+UHD+2160p+REMUX+DCPRip+DTS-HD+5.1-DDR&amp;tr=udp%3A%2F%2Ftracker.leechers-paradise.org%3A6969&amp;tr=udp%3A%2F%2Fzer0day.ch%3A1337&amp;tr=udp%3A%2F%2Fopen.demonii.com%3A1337&amp;tr=udp%3A%2F%2Ftracker.coppersurfer.tk%3A6969&amp;tr=udp%3A%2F%2Fexodus.desync.com%3A6969",
  "seeders": 98,
  "leechers": 128,
  "uploader": "SaM",
  "files": 1,
  "time": 1473214747,
  "description": "** Hateful Eight **\r\n\r\n** 2015**\r\n\r\n** 2160p UHD 4K / DCPrip / x264\r\n\r\nEnglish DTS-HDMA 5.1 **\r\n\r\n** English + SHD + Russian Subtitle(s) **\r\n\r\n\r\n\r\n[ SCREENS ]\r\n \nhttp://extraimago.com/image/wRP2 \nhttp://extraimago.com/image/wRPw \nhttp://extraimago.com/image/wRPa \nhttp://extraimago.com/image/wRP8 \nhttp://extraimago.com/image/wRGf \nhttp://extraimago.com/image/wRGW \nhttp://extraimago.com/image/wRGA \nhttp://extraimago.com/image/wRGv\r\n\r\n[ Info ]\r\n\r\nSource : DCP Rip @ UHDClub\r\nGeneral\r\nFormat : Matroska\r\nFile size : 38.1 GiB\r\nDuration : 2 h 40 min\r\nOverall bit rate : 33.9 Mb/s\r\n\r\nVideo\r\nFormat : AVC\r\nFormat/Info : Advanced Video Codec\r\nFormat profile :   \r\nFormat settings, CABAC : Yes\r\nFormat settings, ReFrames : 8 frames\r\nCodec ID : V_MPEG4/ISO/AVC\r\nDuration : 2 h 40 min\r\nBit rate : 30.3 Mb/s\r\nWidth : 3 840 pixels\r\nHeight : 1 396 pixels\r\nDisplay aspect ratio : 2.751\r\nFrame rate mode : Constant\r\nFrame rate : 25.000 FPS\r\nColor space : YUV\r\nChroma subsampling : 4:2:0\r\nBit depth : 8 bits\r\nScan type : Progressive\r\nBits/(Pixel*Frame) : 0.226\r\nStream size : 34.1 GiB (90%)\r\nTitle : The Hateful Eight (2015)\r\nLanguage : English\r\nDefault : Yes\r\nForced : No\r\n\r\nAudio\r\nFormat : DTS\r\nFormat/Info : Digital Theater Systems\r\nFormat profile : MA / Core\r\nMode : 16\r\nFormat settings, Endianness : Big\r\nCodec ID : A_DTS\r\nDuration : 2 h 40 min\r\nBit rate mode : Variable / Constant\r\nBit rate : 3 550 kb/s / 1 509 kb/s\r\nChannel(s) : 6 channels\r\nChannel positions : Front: L C R, Side: L R, LFE\r\nSampling rate : 48.0 kHz\r\nFrame rate : 93.750 FPS (512 spf)\r\nBit depth : 24 bits\r\nCompression mode : Lossless / Lossy\r\nStream size : 3.99 GiB (10%)\r\nTitle : DTS-HD MA 5.1 - Blu-ray\r\nLanguage : English\r\nDefault : No\r\nForced : No\r\n\r\nChapters : YES\r\n\r\n[ Ultra High Speed Seeding !!! ]",
  "parsed": {
    "xt": "urn:btih:819affa4490e49d4bc30699a0415fe0dc4174cb7",
    "dn": "The Hateful Eight 2015 4K UHD 2160p REMUX DCPRip DTS-HD 5.1-DDR",
    "tr": [
      "udp://exodus.desync.com:6969",
      "udp://open.demonii.com:1337",
      "udp://tracker.coppersurfer.tk:6969",
      "udp://tracker.leechers-paradise.org:6969",
      "udp://zer0day.ch:1337"
    ],
    "infoHash": "819affa4490e49d4bc30699a0415fe0dc4174cb7",
    "infoHashBuffer": {
      "type": "Buffer",
      "data": [
        129,
        154,
        255,
        164,
        73,
        14,
        73,
        212,
        188,
        48,
        105,
        154,
        4,
        21,
        254,
        13,
        196,
        23,
        76,
        183
      ]
    },
    "name": "The Hateful Eight 2015 4K UHD 2160p REMUX DCPRip DTS-HD 5.1-DDR",
    "announce": [
      "udp://exodus.desync.com:6969",
      "udp://open.demonii.com:1337",
      "udp://tracker.coppersurfer.tk:6969",
      "udp://tracker.leechers-paradise.org:6969",
      "udp://zer0day.ch:1337"
    ],
    "urlList": []
  },
  "previous": 226,
  "peers": 215,
  "last_updated": "2016-12-25T06:12:04.174Z"
}